<svg width="122" height="71" viewBox="0 0 122 71" fill="none" xmlns="http://www.w3.org/2000/svg">
<path d="M121.63 0.258789C119.851 7.84281 118.025 15.8014 116.153 24.1344C114.374 32.4675 112.735 40.6601 111.237 48.7123C109.739 56.6708 108.475 63.9739 107.445 70.6217H68.1204L66.1541 67.5319C67.8395 60.6969 69.993 53.4406 72.6146 45.7629C75.3299 37.9916 78.2324 30.2204 81.3222 22.4491C84.5056 14.5842 87.689 7.1874 90.8724 0.258789H121.63ZM56.0421 0.258789C54.2631 7.84281 52.4374 15.8014 50.5648 24.1344C48.7858 32.4675 47.1473 40.6601 45.6492 48.7123C44.1511 56.6708 42.8871 63.9739 41.8572 70.6217H2.53263L0.566406 67.5319C2.25174 60.6969 4.40523 53.4406 7.02687 45.7629C9.74214 37.9916 12.6447 30.2204 15.7344 22.4491C18.9179 14.5842 22.1013 7.1874 25.2847 0.258789H56.0421Z" fill="white"/>
</svg>
