<svg width="122" height="71" viewBox="0 0 122 71" fill="none" xmlns="http://www.w3.org/2000/svg">
<path d="M0 70.3629C1.77897 62.7788 3.60475 54.8203 5.47735 46.4872C7.25632 38.1542 8.89484 29.9616 10.3929 21.9094C11.891 13.9509 13.155 6.64772 14.1849 0H53.5095L55.4757 3.08979C53.7904 9.92477 51.6369 17.1811 49.0152 24.8587C46.3 32.63 43.3975 40.4013 40.3077 48.1726C37.1243 56.0375 33.9408 63.4342 30.7574 70.3629H0ZM65.5877 70.3629C67.3667 62.7788 69.1925 54.8203 71.0651 46.4872C72.8441 38.1542 74.4826 29.9616 75.9807 21.9094C77.4787 13.9509 78.7427 6.64772 79.7727 0H119.097L121.063 3.08979C119.378 9.92477 117.225 17.1811 114.603 24.8587C111.888 32.63 108.985 40.4013 105.895 48.1726C102.712 56.0375 99.5286 63.4342 96.3452 70.3629H65.5877Z" fill="white"/>
</svg>
